<svg width="300" height="300" viewBox="0 0 300 300" fill="none" xmlns="http://www.w3.org/2000/svg">
<path fill-rule="evenodd" clip-rule="evenodd" d="M150 300C232.843 300 300 232.843 300 150C300 67.1573 232.843 0 150 0C67.1573 0 0 67.1573 0 150C0 171.338 4.45554 191.636 12.487 210.013L149.5 73V101.5L22.2872 228.713C48.7096 271.492 96.0256 300 150 300Z" fill="#333333"/>
<path d="M130.683 185.746C123.641 197.169 119.383 206.426 118.08 212.286C117.258 216.449 118.231 223.844 120.168 227.846C123.443 234.772 129.789 241.074 136.331 244.139C141.162 246.099 146.428 246.784 151.636 246.128C156.844 245.472 161.822 243.497 166.103 240.389C170.385 237.282 173.828 233.142 176.111 228.36C178.394 223.578 179.442 218.309 179.155 213.05C178.352 204.422 168.642 186.416 154.666 166.881C150.909 161.651 149.088 160.423 148.008 161.043C146.928 161.662 133.039 181.271 130.683 185.746Z" fill="#CC0000"/>
</svg>
