<svg width="141" height="142" viewBox="0 0 141 142" fill="none" xmlns="http://www.w3.org/2000/svg">
<path fill-rule="evenodd" clip-rule="evenodd" d="M70.5 141C109.436 141 141 109.436 141 70.5C141 31.5639 109.436 0 70.5 0C31.5639 0 0 31.5639 0 70.5C0 75.8675 0.599823 81.0948 1.73609 86.1187L71 17V19.3396V48.195L10.8979 108.171C23.3943 127.901 45.4175 141 70.5 141Z" fill="#333333"/>
<path d="M56.2069 81.2587C50.3919 90.6906 46.8762 98.335 45.8 103.173C45.1219 106.611 45.9249 112.717 47.5241 116.021C50.2285 121.74 55.4683 126.944 60.8702 129.475C64.8593 131.093 69.208 131.658 73.5082 131.117C77.8084 130.575 81.919 128.945 85.4539 126.379C88.9889 123.812 91.8324 120.394 93.7176 116.446C95.6026 112.497 96.4675 108.147 96.231 103.804C95.5679 96.6796 87.5503 81.8123 76.0099 65.682C72.9074 61.3636 71.404 60.3496 70.5123 60.8609C69.6205 61.3723 58.1526 77.5634 56.2069 81.2587Z" fill="#CC0000"/>
</svg>
